<svg width="136" height="71" viewBox="0 0 136 71" fill="none" xmlns="http://www.w3.org/2000/svg">
<path d="M74 34.2946C77.1033 34.3382 79.7726 35.1451 82.0078 36.7153C84.2648 38.2636 85.9141 40.4116 86.9557 43.1594C88.0191 45.8853 88.3989 48.9166 88.0951 52.2532C87.5959 57.8795 85.6428 62.4373 82.2357 65.9265C78.8503 69.3939 74.6619 71.084 69.6706 70.9968C66.6107 70.9532 63.9631 70.1681 61.7279 68.6416C59.4926 67.0932 57.8433 64.9561 56.7799 62.2301C55.7166 59.5042 55.3368 56.4947 55.6406 53.2018C56.2049 47.3574 58.1797 42.7123 61.5651 39.2667C64.9505 35.8211 69.0955 34.1638 74 34.2946ZM64.7227 56.5711C64.7661 58.6646 65.2543 60.322 66.1875 61.5432C67.1207 62.7426 68.4336 63.3641 70.1263 63.4077C72.9475 63.495 75.161 62.1974 76.7669 59.5151C78.3728 56.811 79.1215 53.2672 79.013 48.8839C78.9262 46.7904 78.4162 45.1221 77.4831 43.8791C76.5716 42.6142 75.2587 41.96 73.5443 41.9164C70.8099 41.8291 68.6181 43.1267 66.9688 45.809C65.3411 48.4695 64.5924 52.0569 64.7227 56.5711Z" fill="#F4A259"/>
<path d="M110.914 34.2946C114.017 34.3382 116.687 35.1451 118.922 36.7153C121.179 38.2636 122.828 40.4116 123.87 43.1594C124.933 45.8853 125.313 48.9166 125.009 52.2532C124.51 57.8795 122.557 62.4373 119.15 65.9265C115.764 69.3939 111.576 71.084 106.585 70.9968C103.525 70.9532 100.877 70.1681 98.6419 68.6416C96.4067 67.0932 94.7574 64.9561 93.694 62.2301C92.6306 59.5042 92.2509 56.4947 92.5547 53.2018C93.1189 47.3574 95.0938 42.7123 98.4792 39.2667C101.865 35.8211 106.01 34.1638 110.914 34.2946ZM101.637 56.5711C101.68 58.6646 102.168 60.322 103.102 61.5432C104.035 62.7426 105.348 63.3641 107.04 63.4077C109.862 63.495 112.075 62.1974 113.681 59.5151C115.287 56.811 116.036 53.2672 115.927 48.8839C115.84 46.7904 115.33 45.1221 114.397 43.8791C113.486 42.6142 112.173 41.96 110.458 41.9164C107.724 41.8291 105.532 43.1267 103.883 45.809C102.255 48.4695 101.507 52.0569 101.637 56.5711Z" fill="#F4A259"/>
<path d="M135.753 36.6273C135.918 37.5495 136 38.5157 136 39.5258H127.758C127.758 34.6949 124.048 30.7423 119.515 30.7423C119.103 30.7423 118.732 30.8301 118.32 30.8741C117.496 27.9316 116.301 25.2087 114.776 22.7054C109.624 14.3171 100.764 8.78352 90.6667 8.78352C80.5697 8.78352 71.7091 14.3171 66.5576 22.7054C65.0327 25.2087 63.8376 27.9316 63.0133 30.8741C62.6012 30.8301 62.2303 30.7423 61.8182 30.7423C57.2849 30.7423 52.3733 34.6949 52.3733 39.5258H45.3333C45.3333 38.5157 45.4158 37.5495 45.5806 36.6273C46.6109 29.9518 51.1855 24.5938 57.1612 22.7054C59.3042 17.8305 62.3952 13.4827 66.1867 9.92537C72.6982 3.733 81.2703 0 90.6667 0C100.063 0 108.635 3.733 115.147 9.92537C118.897 13.4827 121.988 17.7866 124.172 22.7054C130.148 24.5938 134.722 29.9957 135.753 36.6273Z" fill="#F4A259"/>
<path d="M45.3333 70.3426H15.1111V65.1745H45.3333V70.3426ZM45.3333 57.4225H0V52.2545H45.3333V57.4225Z" fill="#F4A259"/>
</svg>
